<svg xmlns="http://www.w3.org/2000/svg" xmlns:xlink="http://www.w3.org/1999/xlink" xmlns:fi="http://pattern.flaticon.com/" x="0" y="0" width="700" height="350" viewBox="0 0 700 350"><rect x="0px" y="0px" width="100%" height="100%" opacity="1" fill="#ffe813"/><defs><g transform="matrix(0.1809699982404709 0 0 0.1809699982404709 305 305)" id="L1_1"><g><path d="M364.946,486.72c-17.7,0-28.1-23.2-30.1-28c-2.2-5.5,0.5-11.7,6-13.8c5.3-2.1,11.4,0.4,13.7,5.7   c2.1,5.9,5.8,11.1,10.7,14.9c5.3-7.1,9.2-15,11.6-23.5c4.1-49.3,2.4-108.3-7.7-118.4c-4.1-4.2-4-11,0.3-15.1c4.1-4,10.7-4,14.8,0   c21.8,21.8,16,110,13.8,136.5c-0.1,0.7-0.2,1.4-0.4,2.1c-3.4,11.2-13.2,37.6-30.4,39.5   C366.546,486.72,365.746,486.72,364.946,486.72z" fill="#455a64"/><path d="M355.446,465.52c-5.9,0.1-10.7-4.7-10.8-10.5c0-1.5,0.3-3,0.9-4.4c6-11.5,18.3-18.3,31.2-17.3   c5.9,0,10.7,4.8,10.7,10.7c0,5.9-4.8,10.7-10.7,10.7c-9,0-11.4,4.1-11.7,4.5C363.446,463.02,359.646,465.62,355.446,465.52z" fill="#455a64"/><path d="M132.546,486.72c-0.8,0-1.5,0-2.3-0.1c-17.1-1.9-26.9-28.2-30.4-39.5c-0.2-0.7-0.4-1.4-0.5-2.1   c-2.3-26.5-8.1-114.6,13.8-136.5c4.1-4.2,10.8-4.4,15.1-0.3c4.2,4.1,4.4,10.8,0.3,15.1c-0.1,0.1-0.2,0.2-0.3,0.3   c-10.1,10.1-11.8,69.1-7.7,118.4c2.3,8.8,6.6,16.9,12.7,23.6c4.1-4.3,7.4-9.4,9.6-14.9c2.4-5.4,8.7-7.8,14.1-5.3   c5.1,2.3,7.6,8.2,5.6,13.5C160.646,463.52,150.146,486.72,132.546,486.72z" fill="#455a64"/><path d="M142.046,465.32c-4.2,0-7.9-2.4-9.7-6.2c-0.4-0.7-3-4.5-11.6-4.5c-5.9,0-10.7-4.8-10.7-10.7   c0-5.9,4.8-10.7,10.7-10.7c12.9-1,25.2,5.8,31.2,17.2c2.3,5.4-0.3,11.7-5.7,13.9l0,0C144.846,465.02,143.446,465.32,142.046,465.32   z" fill="#455a64"/></g><g><path d="M166.146,352.62c-1.4-5-2.3-10.2-2.8-15.4c0-3.2-1.4-6.2-3.9-8.2l-9.3-7.6   c-29.4-24.3-29.4-24.8-29.4-37.5c0-5.4-3.9-10-9.3-10.7c-5.3-0.9-10.4,2.5-11.7,7.7c27.8,34.5-2.3,70,10.9,102.4   c1.5,4.3,5.5,7.2,10.1,7.2h32c5,0.1,9.7-2.1,12.8-5.9C171.946,376.72,169.146,365.02,166.146,352.62z" fill="#ffc107"/><path d="M397.946,282.32c-0.6-5.6-5.5-9.6-11.1-9c-0.1,0-0.2,0-0.3,0c-5.6,0.4-9.9,5.1-9.8,10.7   c0,12.8,0,13.2-29.5,37.5l-9.3,7.6c-2.4,2-3.9,5-3.9,8.2c-0.4,5.2-1.3,10.4-2.7,15.4c-2.9,12.4-5.6,24.2,0.7,32   c3.1,3.8,7.9,6,12.8,5.8h31.9c4.3,0,8.1-2.5,9.8-6.4C398.746,351.62,366.046,315.72,397.946,282.32z" fill="#ffc107"/></g><g><path d="M131.446,49.32c-5.9,0-10.7-4.8-10.6-10.7c0-2.8,1.1-5.5,3.1-7.5c31.6-29.9,77.5-39.2,118.2-23.7   c5.5,2.2,8.1,8.4,6,13.9c-2.2,5.5-8.4,8.1-13.9,6c-32.7-12.4-69.7-5-95.2,19C136.946,48.22,134.246,49.32,131.446,49.32z" fill="#455a64"/><path d="M366.046,49.32c-2.8,0-5.5-1.1-7.6-3.1c-25.5-23.9-62.4-31.3-95.2-19c-5.5,2.2-11.6-0.5-13.8-6   c-2.2-5.4,0.5-11.6,5.9-13.8c40.7-15.5,86.6-6.3,118.2,23.7c4.2,4.2,4.2,10.9,0,15.1C371.646,48.22,368.946,49.32,366.046,49.32   L366.046,49.32z" fill="#455a64"/></g><path d="M248.746,6.62c-70.7,0.1-127.9,57.3-128,128c0,2.7,0,5.4,0.3,8.1c-0.2,0.9-0.3,1.7-0.3,2.6v128  c0,3.2,1.5,6.3,3.9,8.3c35.7,27.5,79,43.3,124.1,45.1c45-1.8,88.4-17.5,124.1-45.1c2.5-2,3.9-5.1,3.9-8.3v-138.7  C376.646,63.92,319.446,6.62,248.746,6.62z" fill="#ffc107"/><circle cx="248" cy="134" r="74" fill="#eceff1"/><path d="M248.746,219.92c-47.1,0-85.3-38.2-85.3-85.3s38.2-85.3,85.3-85.3s85.3,38.2,85.3,85.3  S295.846,219.92,248.746,219.92z M248.746,70.62c-35.3,0-64,28.7-64,64s28.7,64,64,64s64-28.7,64-64S284.046,70.62,248.746,70.62  L248.746,70.62L248.746,70.62z" fill="#455a64"/><path d="M248.746,155.92c-11.8,0-21.3-9.6-21.3-21.3s9.6-21.3,21.3-21.3c11.8,0,21.3,9.6,21.3,21.3  S260.546,155.92,248.746,155.92z" fill="#607d8b"/><g><path d="M376.746,155.92c-1.3,0-2.5-0.2-3.7-0.7c-16-5.8-32.7-9.1-49.6-10c-5.9,0-10.7-4.8-10.7-10.7   s4.8-10.7,10.7-10.7c19.5,0.9,38.7,4.7,57.1,11.3c5.5,2,8.4,8.2,6.3,13.7C385.246,153.22,381.246,156.02,376.746,155.92z" fill="#455a64"/><path d="M120.746,155.92c-5.9,0-10.7-4.8-10.7-10.7c0-4.5,2.8-8.5,7-10c18.3-6.6,37.5-10.4,57-11.3   c5.9,0,10.7,4.8,10.7,10.7s-4.8,10.7-10.7,10.7c-17,1-33.7,4.3-49.7,10C123.246,155.72,121.946,155.92,120.746,155.92z" fill="#455a64"/><path d="M248.746,283.92c-21.9-1.8-42.8-10.1-60-23.7c-4.5-3.8-5.1-10.5-1.3-15c3.7-4.3,10.1-5.1,14.6-1.6   c13.5,10.6,29.7,17.1,46.7,19c17.1-1.7,33.3-8.3,46.7-19c4.6-3.7,11.3-2.9,15,1.7s2.9,11.3-1.7,15l0,0   C291.446,273.92,270.646,282.12,248.746,283.92z" fill="#455a64"/></g><path d="M376.746,369.22h-27c0.5-3.5,1.6-8.4,2.4-11.8c1.2-4.9,2.2-9.9,2.9-14.9l5.7-4.7  c30.1-24.7,37.3-30.6,37.3-53.9c0.6-7.9-2.9-15.5-9.4-20c-8.4-4.3-18.3-4.5-26.8-0.5c-0.9,0.4-1.7,0.9-2.5,1.5  c-31.9,24.3-70.5,38.4-110.6,40.3c-40.1-2-78.7-16-110.6-40.3c-0.8-0.6-1.6-1.1-2.5-1.5c-8.5-4-18.5-3.8-26.8,0.5  c-6.5,4.5-10,12.1-9.4,20c0,23.3,7.2,29.2,37.3,54l5.7,4.7c0.7,5,1.7,10,3,14.9c0.8,3.3,1.9,8.2,2.4,11.7h-27.1  c-5.9,0-10.7,4.8-10.7,10.7c0,0.9,0.1,1.7,0.3,2.6c8.4,35.6,36.4,63.2,72.1,71c-2.1,3.7-4.7,7.1-7.6,10.1  c-6.7,5.9-10.8,14.1-11.4,23c0,5.9,4.8,10.7,10.7,10.7h64c4.9,0,9.2-3.3,10.3-8.1l0.3-1.3l0.3,1.3c1.2,4.8,5.5,8.1,10.3,8.1h64  c5.9,0,10.7-4.8,10.7-10.7c-0.7-8.8-4.8-17-11.4-22.9c-3-3-5.5-6.4-7.6-10.1c35.7-7.8,63.7-35.5,72.1-71.1  c1.4-5.7-2.1-11.5-7.8-12.9C378.446,369.32,377.646,369.22,376.746,369.22z" fill="#2196f3"/><path d="M307.946,328.42c-3-2-6.8-2.4-10.2-0.9c-15.6,6.2-32.3,9.5-49.1,9.8c-16.8-0.3-33.4-3.6-49.1-9.8  c-5.4-2.4-11.7,0.1-14,5.5c-0.6,1.4-0.9,2.9-0.9,4.4c0.3,25.8,14,74.7,64,74.7s63.7-48.8,64-74.7  C312.846,333.82,311.046,330.42,307.946,328.42z" fill="#1976d2"/><path d="M248.746,326.62c-45-1.8-88.4-17.5-124.1-45.1c-2.5-2-3.9-5.1-3.9-8.3v-128c0-0.9,0.1-1.7,0.3-2.5c-0.2-2.7-0.3-5.4-0.3-8.1  c0-70.7,57.3-128,128-128s128,57.3,128,128v138.7c0,3.2-1.5,6.3-3.9,8.3C337.146,309.12,293.746,324.82,248.746,326.62z   M142.046,267.92c31.1,22.6,68.2,35.6,106.7,37.3c38.5-1.7,75.6-14.7,106.7-37.3v-133.3c0-58.9-47.8-106.6-106.7-106.6  s-106.7,47.7-106.7,106.6c0,3.3,0.2,6.5,0.5,9.7c0.1,1.4,0,2.9-0.5,4.3V267.92z"/><path d="M248.746,156.02c-11.8,0-21.3-9.6-21.3-21.3s9.6-21.3,21.3-21.3c11.8,0,21.3,9.6,21.3,21.3S260.546,156.02,248.746,156.02z"/><path d="M248.746,220.02c-47.1,0-85.3-38.2-85.3-85.3s38.2-85.3,85.3-85.3s85.3,38.2,85.3,85.3S295.846,220.02,248.746,220.02z   M248.746,70.62c-35.3,0-64,28.7-64,64s28.7,64,64,64s64-28.7,64-64S284.046,70.62,248.746,70.62z"/><path d="M376.746,156.02c-1.3,0-2.5-0.2-3.7-0.7c-16-5.8-32.7-9.1-49.6-10c-5.9,0-10.7-4.8-10.7-10.7s4.8-10.7,10.7-10.7  c19.5,0.9,38.7,4.7,57.1,11.3c5.5,2,8.4,8.2,6.3,13.7C385.246,153.22,381.246,156.02,376.746,156.02z"/><path d="M120.746,156.02c-5.9,0-10.7-4.8-10.7-10.7c0-4.5,2.8-8.5,7-10c18.3-6.6,37.5-10.4,57-11.3c5.9,0,10.7,4.8,10.7,10.7  s-4.8,10.7-10.7,10.7c-17,1-33.7,4.3-49.7,10C123.246,155.72,121.946,156.02,120.746,156.02z"/><path d="M248.746,283.92c-21.9-1.8-42.7-10.1-60-23.7c-4.6-3.7-5.4-10.4-1.7-15s10.4-5.4,15-1.7c13.5,10.6,29.6,17.2,46.7,19  c17-1.9,33.2-8.4,46.7-19c4.6-3.7,11.3-2.9,15,1.7s2.9,11.3-1.7,15C291.446,273.92,270.646,282.12,248.746,283.92z"/><path d="M132.546,486.72c-0.8,0-1.5,0-2.3-0.1c-17.1-1.9-26.9-28.2-30.4-39.5c-0.2-0.7-0.4-1.4-0.5-2.1  c-2.3-26.5-8.1-114.6,13.8-136.5c4.1-4.2,10.8-4.4,15.1-0.3c4.2,4.1,4.4,10.8,0.3,15.1c-0.1,0.1-0.2,0.2-0.3,0.3  c-10.1,10.1-11.8,69.1-7.7,118.4c2.3,8.8,6.6,16.9,12.7,23.6c4.1-4.3,7.4-9.4,9.6-14.9c2.4-5.4,8.7-7.8,14.1-5.3  c5.1,2.3,7.6,8.2,5.6,13.5C160.646,463.52,150.146,486.72,132.546,486.72z"/><path d="M142.046,465.32c-4.2,0-7.9-2.4-9.7-6.2c-0.4-0.7-3-4.5-11.6-4.5c-5.9,0-10.7-4.8-10.7-10.7c0-5.9,4.8-10.7,10.7-10.7  c12.9-1,25.2,5.8,31.2,17.2c2.3,5.4-0.3,11.7-5.7,13.9l0,0C144.846,465.02,143.446,465.32,142.046,465.32z"/><path d="M323.446,497.32h-64c-4.9,0-9.2-3.3-10.3-8.1l-0.3-1.3l-0.3,1.3c-1.2,4.8-5.5,8.1-10.3,8.1h-64c-5.9,0-10.7-4.8-10.7-10.7  c0.7-8.9,4.8-17.2,11.5-23c2.9-3,5.5-6.3,7.6-9.9c-35.7-7.9-63.7-35.5-72-71.1c-1.4-5.7,2-11.5,7.7-12.9c0.9-0.2,1.7-0.3,2.6-0.3  h27.1c-0.5-3.5-1.6-8.5-2.4-11.8c-1.3-4.9-2.2-9.9-2.9-14.9l-5.2-4.3c-30.6-25-37.8-30.9-37.8-54.3c-0.6-7.9,3-15.5,9.4-20.1  c8.4-4.3,18.3-4.4,26.8-0.4c5.5,2.2,8.1,8.4,5.9,13.9c-2.2,5.5-8.4,8.1-13.9,5.9c-0.2-0.1-0.4-0.2-0.6-0.3c-2-0.9-4.2-1.4-6.4-1.3  c0,0.3,0,1,0,2.1c0,12.8,0,13.3,30,37.9l8.8,7.2c2.5,2,3.9,5.1,3.9,8.3c0.4,5.2,1.3,10.3,2.7,15.3c2.9,12.4,5.7,24.2-0.6,32.1  c-3.1,3.8-7.9,6-12.8,5.9h-16.7c9.4,24.9,32.8,41.8,59.4,42.7c5.9,0,10.7,4.8,10.7,10.7c-0.2,12-5.1,23.5-13.7,32h37.1l8.6-34.6  c2.2-5.7,8.6-8.6,14.3-6.4c2.9,1.1,5.3,3.4,6.4,6.4l8.6,34.6h37.3c-8.6-8.5-13.5-20-13.7-32c0-5.9,4.8-10.7,10.7-10.7  c26.6-0.9,50.1-17.7,59.4-42.7h-16.6c-4.9,0.1-9.7-2-12.8-5.9c-6.3-7.9-3.5-19.7-0.6-32.1c1.4-5,2.3-10.2,2.8-15.3  c0-3.2,1.4-6.2,3.9-8.2l8.8-7.2c30-24.6,30-25.1,30-37.9c0.1-0.9-0.1-1.9-0.4-2.8c-0.3,0.3-3.8,0.9-6.1,1.9  c-5.4,2.4-11.7-0.1-14-5.5c-2.4-5.4,0.1-11.7,5.5-14c8.5-4.1,18.4-3.9,26.8,0.4c6.5,4.5,10.1,12.2,9.4,20.1  c0,23.5-7.3,29.3-37.8,54.4l-5.2,4.3c-0.7,5-1.7,10-2.9,14.9c-0.8,3.3-1.9,8.3-2.4,11.8h27c5.9,0,10.7,4.8,10.7,10.7  c0,0.9-0.1,1.7-0.3,2.6c-8.3,35.6-36.4,63.2-72,71.1c2.1,3.6,4.6,7,7.6,9.9c6.7,5.9,10.8,14.1,11.5,23  C334.046,492.52,329.346,497.32,323.446,497.32z"/><path d="M364.946,486.72c-17.7,0-28.1-23.2-30.1-28c-2.2-5.5,0.5-11.7,6-13.8c5.3-2.1,11.4,0.4,13.7,5.7c2.1,5.9,5.8,11.1,10.7,14.9  c5.3-7.1,9.2-15,11.6-23.5c4.1-49.3,2.4-108.3-7.7-118.4c-4.1-4.2-4-11,0.3-15.1c4.1-4,10.7-4,14.8,0c21.8,21.8,16,110,13.8,136.5  c-0.1,0.7-0.2,1.4-0.4,2.1c-3.4,11.2-13.2,37.6-30.4,39.5C366.546,486.72,365.746,486.72,364.946,486.72z"/><path d="M355.446,465.52c-5.9,0.1-10.7-4.7-10.8-10.5c0-1.5,0.3-3,0.9-4.4c6-11.5,18.3-18.3,31.2-17.3c5.9,0,10.7,4.8,10.7,10.7  c0,5.9-4.8,10.7-10.7,10.7c-9,0-11.4,4.1-11.7,4.5C363.446,463.02,359.646,465.62,355.446,465.52z"/><path d="M248.746,411.92c-50,0-63.7-48.8-64-74.7c-0.1-5.9,4.7-10.7,10.5-10.8c1.5,0,3,0.3,4.4,0.9c15.6,6.2,32.3,9.5,49.1,9.8  c16.8-0.3,33.4-3.6,49.1-9.8c5.4-2.4,11.7,0.1,14,5.5c0.6,1.4,0.9,2.9,0.9,4.4C312.446,363.22,298.746,411.92,248.746,411.92z   M208.246,352.82c2.2,21,19.5,37.1,40.5,37.8c21.1-0.7,38.4-16.8,40.5-37.8c-13.2,3.7-26.8,5.7-40.5,5.8  C235.046,358.52,221.446,356.52,208.246,352.82z"/><path d="M131.446,49.32c-5.9,0-10.7-4.8-10.7-10.7c0-2.8,1.1-5.5,3.1-7.5c31.6-29.9,77.5-39.2,118.2-23.7c5.4,2.4,7.8,8.7,5.5,14.1  c-2.3,5.1-8.1,7.6-13.4,5.7c-32.8-12.3-69.7-5-95.2,19C136.946,48.22,134.246,49.32,131.446,49.32z"/><path d="M366.046,49.32c-2.8,0-5.5-1.1-7.6-3.1c-25.6-23.7-62.4-31-95.1-19c-5.5,2.2-11.7-0.5-13.9-5.9c-2.2-5.5,0.5-11.7,5.9-13.9  c40.7-15.5,86.6-6.3,118.2,23.7c4.2,4.2,4.2,10.9,0,15.1C371.646,48.22,368.946,49.32,366.046,49.32L366.046,49.32z"/></g><g transform="matrix(0.10054212063550949 0 0 0.10054212063550949 150 325)" id="L1_2"><path d="M248.644,6.616c-70.592,0-128,57.408-128,128c0,2.731,0.128,5.44,0.32,8.128c-0.213,0.811-0.32,1.664-0.32,2.539v128    c0,3.221,1.429,6.251,3.947,8.277c2.24,1.835,56.128,45.056,124.053,45.056s121.813-43.2,124.053-45.056    c2.517-2.027,3.947-5.077,3.947-8.277V134.616C376.644,64.024,319.236,6.616,248.644,6.616z M355.311,267.949    c-12.907,9.323-56.021,37.333-106.667,37.333c-50.432,0-93.717-28.032-106.667-37.333V148.632    c0.448-1.365,0.619-2.837,0.491-4.309c-0.277-3.2-0.491-6.421-0.491-9.707c0-58.816,47.851-106.667,106.667-106.667    S355.311,75.8,355.311,134.616V267.949z"/><path d="M211.311,86.616c-26.453,0-48,21.525-48,48s21.547,48,48,48c26.453,0,48-21.525,48-48S237.764,86.616,211.311,86.616z     M211.311,161.283c-14.699,0-26.667-11.968-26.667-26.667s11.968-26.667,26.667-26.667s26.667,11.968,26.667,26.667    S226.01,161.283,211.311,161.283z"/><path d="M285.978,86.616c-26.453,0-48,21.525-48,48s21.547,48,48,48c26.453,0,48-21.547,48-48    C333.978,108.163,312.431,86.616,285.978,86.616z M285.978,161.283c-14.699,0-26.667-11.968-26.667-26.667    s11.968-26.667,26.667-26.667s26.667,11.947,26.667,26.667C312.644,149.336,300.676,161.283,285.978,161.283z"/><path d="M380.378,135.277c-1.259-0.448-30.784-11.328-57.067-11.328c-5.888,0-10.667,4.779-10.667,10.667    s4.779,10.667,10.667,10.667c22.4,0,49.344,9.899,49.621,10.005c1.216,0.448,2.475,0.661,3.712,0.661    c4.331,0,8.405-2.645,10.005-6.955C388.698,143.469,385.882,137.325,380.378,135.277z"/><path d="M173.978,123.971c-25.579,0-55.701,10.837-56.981,11.307c-5.547,2.005-8.384,8.128-6.379,13.653    c1.579,4.331,5.675,7.019,10.027,7.019c1.216,0,2.432-0.192,3.648-0.619c0.277-0.107,27.819-10.027,49.685-10.027    c5.888,0,10.667-4.779,10.667-10.667S179.866,123.971,173.978,123.971z"/><path d="M310.298,245.272c-3.669-4.565-10.347-5.333-14.997-1.664c-6.613,5.291-27.861,19.008-46.677,19.008    c-22.485,0-46.421-18.816-46.677-19.008c-4.608-3.648-11.307-2.859-14.976,1.707c-3.669,4.608-2.923,11.307,1.664,14.976    c1.216,0.96,29.952,23.659,60.011,23.659s58.795-22.699,59.989-23.68C313.242,256.579,313.967,249.88,310.298,245.272z"/><path d="M156.719,444.739c-5.44-2.219-11.691,0.363-13.909,5.803c-2.752,6.656-8.149,14.123-9.621,14.955    c-3.2-1.579-9.216-12.907-12.672-23.637c-4.16-49.323-2.432-108.267,7.68-118.379c4.16-4.16,4.16-10.923,0-15.083    c-4.16-4.16-10.923-4.16-15.083,0C91.29,330.2,97.071,418.349,99.354,444.845c0.064,0.747,0.213,1.493,0.427,2.197    c3.413,11.243,13.227,37.611,30.357,39.509c0.768,0.085,1.536,0.128,2.261,0.128c17.643,0,28.117-23.168,30.101-28.011    C164.762,453.208,162.159,446.979,156.719,444.739z"/><path d="M151.834,450.52c-2.667-6.4-12.224-17.237-31.189-17.237c-5.888,0-10.667,4.779-10.667,10.667s4.779,10.667,10.667,10.667    c8.661,0,11.264,3.819,11.648,4.48c1.792,3.883,5.653,6.187,9.685,6.187c1.365,0,2.752-0.256,4.096-0.832    C151.514,462.189,154.074,455.96,151.834,450.52z"/><path d="M376.644,369.283h-27.051c0.469-3.541,1.621-8.448,2.411-11.797c1.173-4.992,2.389-10.112,2.944-14.891l5.312-4.352    c30.485-24.981,37.717-30.912,37.717-54.293c0-11.456-5.141-17.237-9.429-20.032c-10.539-6.891-24.235-1.557-26.837-0.384    c-5.376,2.347-7.808,8.576-5.504,13.952c2.283,5.376,8.533,7.893,13.973,5.611c2.304-0.981,5.803-1.579,6.101-1.92    c0,0,0.363,0.725,0.363,2.773c0,12.8,0,13.291-29.888,37.803l-8.896,7.296c-2.475,2.027-3.883,5.056-3.883,8.235    c0,3.712-1.387,9.643-2.731,15.339c-2.923,12.437-5.675,24.171,0.619,32.107c3.008,3.797,7.552,5.888,12.779,5.888h16.747    c-7.552,16.576-24.96,42.667-59.435,42.667c-5.888,0-10.667,4.779-10.667,10.667c0,15.381,7.445,24.96,13.653,32h-37.312    l-8.64-34.581c-2.389-9.493-18.347-9.493-20.715,0l-8.64,34.581h-37.312c6.208-7.04,13.653-16.619,13.653-32    c0-5.888-4.779-10.667-10.667-10.667c-34.475,0-51.883-26.091-59.435-42.667h16.768c5.227,0,9.771-2.091,12.779-5.888    c6.293-7.936,3.541-19.669,0.619-32.107c-1.344-5.717-2.731-11.627-2.731-15.339c0-3.179-1.408-6.208-3.883-8.235l-8.896-7.296    c-29.888-24.512-29.888-25.024-29.888-37.803c0-1.131,0.107-1.856,0.064-2.176c1.493-0.107,4.331,0.448,6.336,1.28    c5.397,2.368,11.691-0.085,14.037-5.504c2.347-5.397-0.107-11.669-5.504-14.037c-2.603-1.152-16.299-6.485-26.837,0.384    c-4.288,2.816-9.429,8.576-9.429,20.053c0,23.381,7.232,29.312,37.717,54.293l5.312,4.352c0.576,4.779,1.771,9.899,2.944,14.891    c0.789,3.349,1.941,8.256,2.411,11.797h-27.051c-3.285,0-6.4,1.515-8.405,4.096c-2.027,2.581-2.731,5.973-1.941,9.152    c5.717,22.805,27.776,64.213,72.043,71.104c-1.835,3.584-4.587,6.635-7.552,9.941c-5.376,6.016-11.477,12.821-11.477,23.061    c0,5.888,4.779,10.667,10.667,10.667h64c4.885,0,9.152-3.328,10.347-8.085l0.32-1.28l0.32,1.259    c1.173,4.757,5.461,8.085,10.347,8.085h64c5.888,0,10.667-4.757,10.667-10.667c0-10.24-6.101-17.045-11.456-23.04    c-2.965-3.307-5.717-6.379-7.552-9.941c44.267-6.912,66.325-48.299,72.043-71.104c0.789-3.2,0.085-6.571-1.941-9.152    S379.93,369.283,376.644,369.283z"/><path d="M384.196,308.397c-4.16-4.16-10.923-4.16-15.083,0c-4.16,4.16-4.16,10.923,0,15.083    c10.091,10.091,11.819,69.056,7.68,118.4c-3.435,10.731-9.408,22.016-11.605,23.467c-2.517-0.661-7.893-8.149-10.688-14.827    c-2.261-5.44-8.533-7.979-13.931-5.76c-5.44,2.261-8.021,8.469-5.781,13.909c1.984,4.843,12.437,28.011,30.101,28.011    c0.725,0,1.515-0.043,2.283-0.128c17.131-1.92,26.944-28.267,30.357-39.509c0.213-0.725,0.363-1.451,0.427-2.197    C400.239,418.349,405.999,330.2,384.196,308.397z"/><path d="M376.644,433.283c-18.965,0-28.523,10.837-31.189,17.237c-2.24,5.44,0.213,11.904,5.675,14.165    c1.365,0.597,2.816,0.875,4.224,0.875c4.075,0,7.915-2.347,9.6-6.421c0.256-0.448,2.731-4.523,11.691-4.523    c5.888,0,10.667-4.779,10.667-10.667C387.311,438.061,382.532,433.283,376.644,433.283z"/><path d="M307.93,328.408c-3.072-1.984-6.869-2.304-10.155-0.917c-0.213,0.085-23.147,9.792-49.109,9.792    c-25.963,0-48.896-9.685-49.109-9.792c-3.328-1.408-7.104-1.067-10.155,0.917c-3.008,1.984-4.8,5.376-4.757,8.981    c0.277,25.792,13.995,74.56,64,74.56s63.723-48.768,64.043-74.56C312.73,333.784,310.938,330.413,307.93,328.408z     M248.644,390.616c-27.093,0-36.992-21.995-40.597-37.803c10.517,2.901,24.96,5.803,40.597,5.803s30.08-2.901,40.597-5.803    C285.636,368.6,275.738,390.616,248.644,390.616z"/><path d="M241.946,7.405c-2.731-1.109-68.032-26.496-118.187,23.68c-4.16,4.16-4.16,10.923,0,15.083    c2.091,2.069,4.821,3.115,7.552,3.115s5.461-1.024,7.552-3.115c40.021-40.064,92.907-19.861,95.168-18.965    c5.355,2.155,11.627-0.491,13.824-5.973C250.031,15.789,247.407,9.603,241.946,7.405z"/><path d="M373.508,31.085C323.311-19.112,258.052,6.296,255.322,7.405c-5.461,2.176-8.107,8.405-5.909,13.867    c2.197,5.461,8.405,8.107,13.867,5.909c0.533-0.171,54.784-21.376,95.147,18.987c2.091,2.069,4.821,3.115,7.552,3.115    c2.731,0,5.461-1.024,7.531-3.115C377.669,42.008,377.669,35.245,373.508,31.085z"/><circle cx="216" cy="145" r="10"/><circle cx="291" cy="145" r="10"/></g><g transform="matrix(0.14075897634029388 0 0 0.14075897634029388 140 140)" id="L1_3"><path d="M248.644,6.616c-70.592,0-128,57.408-128,128c0,2.731,0.128,5.44,0.32,8.128c-0.213,0.811-0.32,1.664-0.32,2.539v128    c0,3.221,1.429,6.251,3.947,8.277c2.24,1.835,56.128,45.056,124.053,45.056s121.813-43.2,124.053-45.056    c2.517-2.027,3.947-5.077,3.947-8.277V134.616C376.644,64.024,319.236,6.616,248.644,6.616z M355.311,267.949    c-12.907,9.323-56.021,37.333-106.667,37.333c-50.432,0-93.717-28.032-106.667-37.333V148.632    c0.448-1.365,0.619-2.837,0.491-4.309c-0.277-3.2-0.491-6.421-0.491-9.707c0-58.816,47.851-106.667,106.667-106.667    S355.311,75.8,355.311,134.616V267.949z"/><circle cx="248" cy="134" r="21"/><path d="M248.644,49.283c-47.061,0-85.333,38.272-85.333,85.333s38.272,85.333,85.333,85.333s85.333-38.272,85.333-85.333    S295.706,49.283,248.644,49.283z M248.644,198.616c-35.285,0-64-28.715-64-64s28.715-64,64-64s64,28.715,64,64    S283.93,198.616,248.644,198.616z"/><path d="M380.378,135.277c-1.259-0.448-30.784-11.328-57.067-11.328c-5.888,0-10.667,4.779-10.667,10.667    s4.779,10.667,10.667,10.667c22.4,0,49.344,9.899,49.621,10.005c1.216,0.448,2.475,0.661,3.712,0.661    c4.331,0,8.405-2.645,10.005-6.955C388.698,143.469,385.882,137.325,380.378,135.277z"/><path d="M173.978,123.971c-25.579,0-55.701,10.837-56.981,11.307c-5.547,2.005-8.384,8.128-6.379,13.653    c1.579,4.331,5.675,7.019,10.027,7.019c1.216,0,2.432-0.192,3.648-0.619c0.277-0.107,27.819-10.027,49.685-10.027    c5.888,0,10.667-4.779,10.667-10.667S179.866,123.971,173.978,123.971z"/><path d="M310.298,245.272c-3.669-4.565-10.368-5.333-14.997-1.664c-6.613,5.291-27.861,19.008-46.677,19.008    c-22.485,0-46.421-18.816-46.677-19.008c-4.608-3.648-11.307-2.859-14.976,1.707c-3.669,4.608-2.923,11.307,1.664,14.976    c1.216,0.96,29.952,23.659,60.011,23.659s58.795-22.699,59.989-23.68C313.242,256.579,313.967,249.88,310.298,245.272z"/><path d="M156.719,444.739c-5.44-2.219-11.691,0.363-13.909,5.803c-2.752,6.656-8.149,14.123-9.621,14.955    c-3.2-1.579-9.216-12.907-12.672-23.637c-4.16-49.323-2.432-108.267,7.68-118.379c4.16-4.16,4.16-10.923,0-15.083    c-4.16-4.16-10.923-4.16-15.083,0C91.29,330.2,97.071,418.349,99.354,444.845c0.064,0.747,0.213,1.493,0.427,2.197    c3.413,11.243,13.227,37.611,30.357,39.509c0.768,0.085,1.536,0.128,2.261,0.128c17.643,0,28.117-23.168,30.101-28.011    C164.762,453.208,162.159,446.979,156.719,444.739z"/><path d="M151.834,450.52c-2.667-6.4-12.224-17.237-31.189-17.237c-5.888,0-10.667,4.779-10.667,10.667s4.779,10.667,10.667,10.667    c8.661,0,11.264,3.819,11.648,4.48c1.792,3.883,5.653,6.187,9.685,6.187c1.365,0,2.752-0.256,4.096-0.832    C151.514,462.189,154.074,455.96,151.834,450.52z"/><path d="M376.644,369.283h-27.051c0.469-3.541,1.621-8.448,2.411-11.797c1.173-4.992,2.389-10.112,2.944-14.891l5.312-4.352    c30.485-24.981,37.717-30.912,37.717-54.293c0-11.456-5.141-17.237-9.429-20.032c-10.56-6.891-24.235-1.557-26.837-0.384    c-5.376,2.347-7.808,8.576-5.504,13.952c2.283,5.376,8.491,7.893,13.973,5.611c2.304-0.981,5.803-1.579,6.101-1.92    c0,0,0.363,0.725,0.363,2.773c0,12.8,0,13.291-29.888,37.803l-8.896,7.296c-2.475,2.027-3.883,5.056-3.883,8.235    c0,3.712-1.387,9.643-2.731,15.339c-2.923,12.437-5.675,24.171,0.619,32.107c3.008,3.797,7.552,5.888,12.779,5.888h16.747    c-7.552,16.576-24.96,42.667-59.435,42.667c-5.888,0-10.667,4.779-10.667,10.667c0,15.381,7.445,24.96,13.653,32h-37.312    l-8.64-34.581c-2.389-9.493-18.347-9.493-20.715,0l-8.64,34.581h-37.312c6.208-7.04,13.653-16.619,13.653-32    c0-5.888-4.779-10.667-10.667-10.667c-34.475,0-51.883-26.091-59.435-42.667h16.768c5.227,0,9.771-2.091,12.779-5.888    c6.293-7.936,3.541-19.669,0.619-32.107c-1.344-5.717-2.731-11.627-2.731-15.339c0-3.179-1.408-6.208-3.883-8.235l-8.896-7.296    c-29.888-24.512-29.888-25.024-29.888-37.803c0-1.131,0.107-1.856,0.064-2.176c1.451-0.107,4.331,0.448,6.336,1.28    c5.397,2.368,11.691-0.085,14.037-5.504c2.347-5.397-0.107-11.669-5.504-14.037c-2.603-1.152-16.299-6.485-26.837,0.384    c-4.288,2.816-9.429,8.576-9.429,20.053c0,23.381,7.232,29.312,37.717,54.293l5.312,4.352c0.576,4.779,1.771,9.899,2.944,14.891    c0.789,3.349,1.941,8.256,2.411,11.797h-27.051c-3.285,0-6.4,1.515-8.405,4.096c-2.027,2.581-2.731,5.973-1.941,9.152    c5.717,22.805,27.776,64.213,72.043,71.104c-1.835,3.584-4.587,6.635-7.552,9.941c-5.376,6.016-11.477,12.821-11.477,23.061    c0,5.888,4.779,10.667,10.667,10.667h64c4.885,0,9.152-3.328,10.347-8.085l0.32-1.28l0.32,1.259    c1.173,4.757,5.461,8.085,10.347,8.085h64c5.888,0,10.667-4.757,10.667-10.667c0-10.24-6.101-17.045-11.456-23.04    c-2.965-3.307-5.717-6.379-7.552-9.941c44.267-6.912,66.325-48.299,72.043-71.104c0.789-3.2,0.085-6.571-1.941-9.152    S379.93,369.283,376.644,369.283z"/><path d="M384.196,308.397c-4.16-4.16-10.923-4.16-15.083,0c-4.16,4.16-4.16,10.923,0,15.083    c10.091,10.091,11.819,69.056,7.68,118.4c-3.435,10.731-9.408,22.016-11.605,23.467c-2.517-0.661-7.893-8.149-10.688-14.827    c-2.261-5.44-8.533-7.979-13.931-5.76c-5.44,2.261-8.021,8.469-5.781,13.909c1.984,4.843,12.437,28.011,30.101,28.011    c0.725,0,1.515-0.043,2.283-0.128c17.131-1.92,26.944-28.267,30.357-39.509c0.213-0.725,0.363-1.451,0.427-2.197    C400.239,418.349,405.999,330.2,384.196,308.397z"/><path d="M376.644,433.283c-18.965,0-28.523,10.837-31.189,17.237c-2.24,5.44,0.213,11.904,5.675,14.165    c1.365,0.597,2.816,0.875,4.224,0.875c4.075,0,7.915-2.347,9.6-6.421c0.256-0.448,2.731-4.523,11.691-4.523    c5.888,0,10.667-4.779,10.667-10.667C387.311,438.061,382.532,433.283,376.644,433.283z"/><path d="M307.93,328.408c-3.072-1.984-6.869-2.304-10.155-0.917c-0.213,0.085-23.147,9.792-49.109,9.792    c-25.963,0-48.896-9.685-49.109-9.792c-3.328-1.408-7.104-1.067-10.155,0.917c-3.008,1.984-4.8,5.376-4.757,8.981    c0.277,25.792,13.995,74.56,64,74.56s63.723-48.768,64.043-74.56C312.73,333.784,310.938,330.413,307.93,328.408z     M248.644,390.616c-27.093,0-36.992-21.995-40.597-37.803c10.517,2.901,24.96,5.803,40.597,5.803s30.08-2.901,40.597-5.803    C285.636,368.6,275.738,390.616,248.644,390.616z"/><path d="M241.946,7.405c-2.752-1.109-68.032-26.496-118.187,23.68c-4.16,4.16-4.16,10.923,0,15.083    c2.091,2.069,4.821,3.115,7.552,3.115s5.461-1.024,7.552-3.115c40.021-40.064,92.907-19.861,95.168-18.965    c5.376,2.155,11.627-0.491,13.824-5.973C250.031,15.789,247.407,9.603,241.946,7.405z"/><path d="M373.508,31.085C323.332-19.112,258.074,6.296,255.322,7.405c-5.461,2.176-8.085,8.405-5.909,13.867    c2.176,5.461,8.363,8.107,13.867,5.909c0.533-0.171,54.805-21.376,95.147,18.987c2.091,2.069,4.821,3.115,7.552,3.115    c2.731,0,5.461-1.024,7.531-3.115C377.669,42.008,377.669,35.245,373.508,31.085z"/></g><path d="M165,0C74.019,0,0,74.019,0,165s74.019,165,165,165c90.982,0,165-74.019,165-165S255.982,0,165,0z" transform="matrix(0.03030303120613098 0 0 0.03030303120613098 257.5 257.5)" id="L1_4" fill="#789c16"/><g transform="matrix(0.060325272381305695 0 0 0.060325272381305695 335 160)" id="L1_5"><path d="M248.644,6.616c-70.592,0-128,57.408-128,128c0,2.731,0.128,5.44,0.32,8.128c-0.213,0.811-0.32,1.664-0.32,2.539v128    c0,5.909,4.779,10.688,10.667,10.688s10.667-4.779,10.667-10.667V148.632c0.448-1.365,0.619-2.837,0.491-4.309    c-0.277-3.2-0.491-6.421-0.491-9.707c0-58.816,47.851-106.667,106.667-106.667S355.311,75.8,355.311,134.616v138.667    c0,5.888,4.779,10.667,10.667,10.667c5.888,0,10.667-4.757,10.667-10.667V134.616C376.644,64.024,319.236,6.616,248.644,6.616z"/><path d="M211.311,86.616c-26.453,0-48,21.525-48,48s21.547,48,48,48c26.453,0,48-21.525,48-48S237.764,86.616,211.311,86.616z     M211.311,161.283c-14.699,0-26.667-11.968-26.667-26.667s11.968-26.667,26.667-26.667s26.667,11.968,26.667,26.667    S226.01,161.283,211.311,161.283z"/><path d="M285.978,86.616c-26.453,0-48,21.525-48,48s21.547,48,48,48c26.453,0,48-21.547,48-48    C333.978,108.163,312.431,86.616,285.978,86.616z M285.978,161.283c-14.699,0-26.667-11.968-26.667-26.667    s11.968-26.667,26.667-26.667s26.667,11.947,26.667,26.667C312.644,149.336,300.676,161.283,285.978,161.283z"/><path d="M380.378,135.277c-1.259-0.448-30.784-11.328-57.067-11.328c-5.888,0-10.667,4.779-10.667,10.667    s4.779,10.667,10.667,10.667c22.4,0,49.344,9.899,49.621,10.005c1.216,0.448,2.475,0.661,3.712,0.661    c4.331,0,8.405-2.645,10.005-6.955C388.698,143.469,385.882,137.325,380.378,135.277z"/><path d="M173.978,123.971c-25.579,0-55.701,10.837-56.981,11.307c-5.547,2.005-8.384,8.128-6.379,13.653    c1.579,4.331,5.675,7.019,10.027,7.019c1.216,0,2.432-0.192,3.648-0.619c0.277-0.107,27.819-10.027,49.685-10.027    c5.888,0,10.667-4.779,10.667-10.667S179.866,123.971,173.978,123.971z"/><path d="M310.276,245.272c-3.669-4.565-10.347-5.333-14.997-1.664c-6.592,5.291-27.84,19.008-46.656,19.008    c-22.485,0-46.421-18.816-46.677-19.008c-4.608-3.648-11.307-2.859-14.976,1.707c-3.669,4.608-2.923,11.307,1.664,14.976    c1.216,0.96,29.952,23.659,60.011,23.659s58.795-22.699,59.968-23.68C313.22,256.579,313.946,249.88,310.276,245.272z"/><path d="M156.719,444.739c-5.44-2.219-11.691,0.363-13.909,5.803c-2.752,6.656-8.149,14.123-9.621,14.955    c-3.2-1.579-9.216-12.907-12.672-23.637c-4.16-49.323-2.432-108.267,7.68-118.379c4.16-4.16,4.16-10.923,0-15.083    c-4.16-4.16-10.923-4.16-15.083,0C91.29,330.2,97.071,418.349,99.354,444.845c0.064,0.747,0.213,1.493,0.427,2.197    c3.413,11.243,13.227,37.611,30.357,39.509c0.768,0.085,1.536,0.128,2.261,0.128c17.643,0,28.117-23.168,30.101-28.011    C164.762,453.208,162.159,446.979,156.719,444.739z"/><path d="M151.834,450.52c-2.667-6.4-12.224-17.237-31.189-17.237c-5.888,0-10.667,4.779-10.667,10.667s4.779,10.667,10.667,10.667    c8.661,0,11.264,3.819,11.648,4.48c1.792,3.883,5.653,6.187,9.685,6.187c1.365,0,2.752-0.256,4.096-0.832    C151.514,462.189,154.074,455.96,151.834,450.52z"/><path d="M384.196,308.397c-4.16-4.16-10.923-4.16-15.083,0c-4.16,4.16-4.16,10.923,0,15.083    c10.091,10.091,11.819,69.056,7.68,118.4c-3.435,10.731-9.408,22.016-11.605,23.467c-2.517-0.661-7.893-8.149-10.688-14.827    c-2.261-5.44-8.533-7.979-13.931-5.76c-5.44,2.261-8.021,8.469-5.781,13.909c1.984,4.843,12.437,28.011,30.101,28.011    c0.725,0,1.515-0.043,2.283-0.128c17.131-1.92,26.944-28.267,30.357-39.509c0.213-0.725,0.363-1.451,0.427-2.197    C400.239,418.349,405.999,330.2,384.196,308.397z"/><path d="M376.644,433.283c-18.965,0-28.523,10.837-31.189,17.237c-2.24,5.44,0.213,11.904,5.675,14.165    c1.365,0.597,2.816,0.875,4.224,0.875c4.075,0,7.915-2.347,9.6-6.421c0.256-0.448,2.731-4.523,11.691-4.523    c5.888,0,10.667-4.779,10.667-10.667C387.311,438.061,382.532,433.283,376.644,433.283z"/><path d="M376.644,369.283h-27.051c0.469-3.541,1.621-8.448,2.411-11.797c1.173-4.992,2.368-10.112,2.944-14.891l5.312-4.352    c30.485-24.981,37.717-30.912,37.717-54.293c0-14.272-8.576-23.509-21.867-23.509c-7.019,0-13.227,2.56-14.4,3.072    c-0.875,0.384-1.707,0.896-2.453,1.493c-0.491,0.405-50.432,40.277-110.613,40.277s-110.101-39.872-110.613-40.277    c-0.747-0.597-1.579-1.109-2.453-1.493c-1.173-0.512-7.381-3.072-14.4-3.072c-13.291,0-21.867,9.237-21.867,23.509    c0,23.381,7.232,29.312,37.717,54.293l5.312,4.352c0.555,4.779,1.771,9.899,2.944,14.891c0.789,3.349,1.941,8.256,2.411,11.797    h-27.051c-3.285,0-6.4,1.515-8.427,4.096c-2.027,2.581-2.731,5.952-1.941,9.152c5.717,22.805,27.776,64.192,72.043,71.104    c-1.835,3.563-4.587,6.635-7.552,9.941c-5.355,5.995-11.456,12.8-11.456,23.04c0,5.888,4.779,10.667,10.667,10.667h64    c4.885,0,9.173-3.328,10.347-8.085l0.32-1.259l0.32,1.28c1.195,4.757,5.461,8.085,10.347,8.085h64    c5.888,0,10.667-4.779,10.667-10.667c0-10.24-6.101-17.045-11.477-23.061c-2.965-3.307-5.717-6.357-7.552-9.941    c44.267-6.891,66.325-48.299,72.043-71.104c0.789-3.179,0.085-6.571-1.941-9.152C383.044,370.797,379.93,369.283,376.644,369.283z     M248.644,411.949c-50.005,0-63.723-48.768-64-74.56c-0.043-3.605,1.749-6.997,4.757-8.981c3.051-1.984,6.827-2.325,10.155-0.917    c0.213,0.107,23.147,9.792,49.109,9.792c25.963,0,48.896-9.707,49.109-9.792c3.285-1.387,7.083-1.067,10.155,0.917    c3.008,2.005,4.8,5.376,4.757,8.981C312.367,363.181,298.65,411.949,248.644,411.949z"/><path d="M241.946,7.405c-2.731-1.109-68.032-26.496-118.187,23.68c-4.16,4.16-4.16,10.923,0,15.083    c2.091,2.069,4.821,3.115,7.552,3.115s5.461-1.024,7.552-3.115c40.021-40.064,92.907-19.861,95.168-18.965    c5.355,2.155,11.627-0.491,13.824-5.973C250.031,15.789,247.407,9.603,241.946,7.405z"/><path d="M373.508,31.085C323.311-19.112,258.052,6.296,255.322,7.405c-5.461,2.176-8.107,8.405-5.909,13.867    c2.197,5.461,8.405,8.107,13.867,5.909c0.533-0.171,54.784-21.376,95.147,18.987c2.091,2.069,4.821,3.115,7.552,3.115    c2.731,0,5.461-1.024,7.531-3.115C377.669,42.008,377.669,35.245,373.508,31.085z"/><circle cx="216" cy="145" r="10"/><circle cx="291" cy="145" r="10"/></g></defs><g fi:class="KUsePattern"><pattern id="pattern_L1_1" width="350" height="350" patternUnits="userSpaceOnUse"><use xlink:href="#L1_1" x="-350" y="-350"/><use xlink:href="#L1_1" x="0" y="-350"/><use xlink:href="#L1_1" x="350" y="-350"/><use xlink:href="#L1_1" x="-350" y="0"/><use xlink:href="#L1_1" x="0" y="0"/><use xlink:href="#L1_1" x="350" y="0"/><use xlink:href="#L1_1" x="-350" y="350"/><use xlink:href="#L1_1" x="0" y="350"/><use xlink:href="#L1_1" x="350" y="350"/></pattern><rect x="0" y="0" width="100%" height="100%" fill="url(#pattern_L1_1)"/></g><g fi:class="KUsePattern"><pattern id="pattern_L1_2" width="350" height="350" patternUnits="userSpaceOnUse"><use xlink:href="#L1_2" x="-350" y="-350"/><use xlink:href="#L1_2" x="0" y="-350"/><use xlink:href="#L1_2" x="350" y="-350"/><use xlink:href="#L1_2" x="-350" y="0"/><use xlink:href="#L1_2" x="0" y="0"/><use xlink:href="#L1_2" x="350" y="0"/><use xlink:href="#L1_2" x="-350" y="350"/><use xlink:href="#L1_2" x="0" y="350"/><use xlink:href="#L1_2" x="350" y="350"/></pattern><rect x="0" y="0" width="100%" height="100%" fill="url(#pattern_L1_2)"/></g><g fi:class="KUsePattern"><pattern id="pattern_L1_3" width="350" height="350" patternUnits="userSpaceOnUse"><use xlink:href="#L1_3" x="-350" y="-350"/><use xlink:href="#L1_3" x="0" y="-350"/><use xlink:href="#L1_3" x="350" y="-350"/><use xlink:href="#L1_3" x="-350" y="0"/><use xlink:href="#L1_3" x="0" y="0"/><use xlink:href="#L1_3" x="350" y="0"/><use xlink:href="#L1_3" x="-350" y="350"/><use xlink:href="#L1_3" x="0" y="350"/><use xlink:href="#L1_3" x="350" y="350"/></pattern><rect x="0" y="0" width="100%" height="100%" fill="url(#pattern_L1_3)"/></g><g fi:class="KUsePattern"><pattern id="pattern_L1_4" width="350" height="350" patternUnits="userSpaceOnUse"><use xlink:href="#L1_4" x="-350" y="-350"/><use xlink:href="#L1_4" x="0" y="-350"/><use xlink:href="#L1_4" x="350" y="-350"/><use xlink:href="#L1_4" x="-350" y="0"/><use xlink:href="#L1_4" x="0" y="0"/><use xlink:href="#L1_4" x="350" y="0"/><use xlink:href="#L1_4" x="-350" y="350"/><use xlink:href="#L1_4" x="0" y="350"/><use xlink:href="#L1_4" x="350" y="350"/></pattern><rect x="0" y="0" width="100%" height="100%" fill="url(#pattern_L1_4)"/></g><g fi:class="KUsePattern"><pattern id="pattern_L1_5" width="350" height="350" patternUnits="userSpaceOnUse"><use xlink:href="#L1_5" x="-350" y="-350"/><use xlink:href="#L1_5" x="0" y="-350"/><use xlink:href="#L1_5" x="350" y="-350"/><use xlink:href="#L1_5" x="-350" y="0"/><use xlink:href="#L1_5" x="0" y="0"/><use xlink:href="#L1_5" x="350" y="0"/><use xlink:href="#L1_5" x="-350" y="350"/><use xlink:href="#L1_5" x="0" y="350"/><use xlink:href="#L1_5" x="350" y="350"/></pattern><rect x="0" y="0" width="100%" height="100%" fill="url(#pattern_L1_5)"/></g></svg>